<mxfile host="app.diagrams.net" agent="Mozilla/5.0 (X11; Linux x86_64) AppleWebKit/537.36 (KHTML, like Gecko) Chrome/133.0.0.0 Safari/537.36" version="26.0.16">
  <diagram name="Page-1" id="OYKTsOztYvVFuXJB_RMK">
    <mxGraphModel dx="848" dy="597" grid="1" gridSize="10" guides="1" tooltips="1" connect="1" arrows="1" fold="1" page="1" pageScale="1" pageWidth="850" pageHeight="1100" math="0" shadow="0">
      <root>
        <mxCell id="0" />
        <mxCell id="1" parent="0" />
        <mxCell id="xweilm0_zY813hbNvjTR-28" value="" style="rounded=0;whiteSpace=wrap;html=1;" vertex="1" parent="1">
          <mxGeometry x="293" y="140" width="380" height="250" as="geometry" />
        </mxCell>
        <mxCell id="xweilm0_zY813hbNvjTR-2" value="" style="whiteSpace=wrap;html=1;aspect=fixed;" vertex="1" parent="1">
          <mxGeometry x="633" y="180" width="50" height="50" as="geometry" />
        </mxCell>
        <mxCell id="xweilm0_zY813hbNvjTR-3" value="" style="whiteSpace=wrap;html=1;aspect=fixed;" vertex="1" parent="1">
          <mxGeometry x="633" y="240" width="50" height="50" as="geometry" />
        </mxCell>
        <mxCell id="xweilm0_zY813hbNvjTR-4" value="" style="whiteSpace=wrap;html=1;aspect=fixed;" vertex="1" parent="1">
          <mxGeometry x="633" y="300" width="50" height="50" as="geometry" />
        </mxCell>
        <mxCell id="xweilm0_zY813hbNvjTR-5" value="" style="whiteSpace=wrap;html=1;" vertex="1" parent="1">
          <mxGeometry x="313" y="220" width="170" height="110" as="geometry" />
        </mxCell>
        <mxCell id="xweilm0_zY813hbNvjTR-7" value="Nutzer" style="shape=umlActor;verticalLabelPosition=bottom;verticalAlign=top;html=1;outlineConnect=0;" vertex="1" parent="1">
          <mxGeometry x="80" y="195" width="70" height="140" as="geometry" />
        </mxCell>
        <mxCell id="xweilm0_zY813hbNvjTR-9" value="" style="rounded=1;whiteSpace=wrap;html=1;" vertex="1" parent="1">
          <mxGeometry x="150" y="205" width="50" height="100" as="geometry" />
        </mxCell>
        <mxCell id="xweilm0_zY813hbNvjTR-11" value="Modbus" style="rounded=0;whiteSpace=wrap;html=1;" vertex="1" parent="1">
          <mxGeometry x="383" y="354.5" width="100" height="25" as="geometry" />
        </mxCell>
        <mxCell id="xweilm0_zY813hbNvjTR-13" value="" style="sketch=0;points=[[0.5,0,0],[1,0.5,0],[0.5,1,0],[0,0.5,0],[0.145,0.145,0],[0.8555,0.145,0],[0.855,0.8555,0],[0.145,0.855,0]];verticalLabelPosition=bottom;html=1;verticalAlign=top;aspect=fixed;align=center;pointerEvents=1;shape=mxgraph.cisco19.lock;fillColor=#005073;strokeColor=none;" vertex="1" parent="1">
          <mxGeometry x="643" y="309.5" width="30" height="30" as="geometry" />
        </mxCell>
        <mxCell id="xweilm0_zY813hbNvjTR-15" value="" style="sketch=0;points=[[0.5,0,0],[1,0.5,0],[0.5,1,0],[0,0.5,0],[0.145,0.145,0],[0.8555,0.145,0],[0.855,0.8555,0],[0.145,0.855,0]];verticalLabelPosition=bottom;html=1;verticalAlign=top;aspect=fixed;align=center;pointerEvents=1;shape=mxgraph.cisco19.lock;fillColor=#005073;strokeColor=none;" vertex="1" parent="1">
          <mxGeometry x="643" y="250" width="30" height="30" as="geometry" />
        </mxCell>
        <mxCell id="xweilm0_zY813hbNvjTR-16" value="" style="sketch=0;points=[[0.5,0,0],[1,0.5,0],[0.5,1,0],[0,0.5,0],[0.145,0.145,0],[0.8555,0.145,0],[0.855,0.8555,0],[0.145,0.855,0]];verticalLabelPosition=bottom;html=1;verticalAlign=top;aspect=fixed;align=center;pointerEvents=1;shape=mxgraph.cisco19.lock;fillColor=#005073;strokeColor=none;" vertex="1" parent="1">
          <mxGeometry x="643" y="190" width="30" height="30" as="geometry" />
        </mxCell>
        <mxCell id="xweilm0_zY813hbNvjTR-17" style="edgeStyle=orthogonalEdgeStyle;rounded=0;orthogonalLoop=1;jettySize=auto;html=1;exitX=1;exitY=0.5;exitDx=0;exitDy=0;entryX=0.016;entryY=0.568;entryDx=0;entryDy=0;entryPerimeter=0;" edge="1" parent="1" source="xweilm0_zY813hbNvjTR-11" target="xweilm0_zY813hbNvjTR-15">
          <mxGeometry relative="1" as="geometry" />
        </mxCell>
        <mxCell id="xweilm0_zY813hbNvjTR-18" style="edgeStyle=orthogonalEdgeStyle;rounded=0;orthogonalLoop=1;jettySize=auto;html=1;exitX=1;exitY=0.5;exitDx=0;exitDy=0;entryX=0;entryY=0.5;entryDx=0;entryDy=0;entryPerimeter=0;" edge="1" parent="1" source="xweilm0_zY813hbNvjTR-11" target="xweilm0_zY813hbNvjTR-16">
          <mxGeometry relative="1" as="geometry" />
        </mxCell>
        <mxCell id="xweilm0_zY813hbNvjTR-22" value="Schrank" style="rounded=0;whiteSpace=wrap;html=1;" vertex="1" parent="1">
          <mxGeometry x="293" y="120" width="380" height="20" as="geometry" />
        </mxCell>
        <mxCell id="xweilm0_zY813hbNvjTR-6" value="Raspberry Pi" style="whiteSpace=wrap;html=1;fontSize=10;" vertex="1" parent="1">
          <mxGeometry x="313" y="220" width="70" height="22.5" as="geometry" />
        </mxCell>
        <mxCell id="xweilm0_zY813hbNvjTR-29" value="Nutzerverwaltung&lt;div&gt;Gegenstandsverwaltung&lt;/div&gt;&lt;div&gt;Endpunkte zum Schrank&lt;/div&gt;" style="rounded=0;whiteSpace=wrap;html=1;" vertex="1" parent="1">
          <mxGeometry x="313" y="242.5" width="170" height="87.5" as="geometry" />
        </mxCell>
        <mxCell id="xweilm0_zY813hbNvjTR-23" value="DB" style="shape=cylinder3;whiteSpace=wrap;html=1;boundedLbl=1;backgroundOutline=1;size=15;fontStyle=1" vertex="1" parent="1">
          <mxGeometry x="393" y="210" width="51" height="50" as="geometry" />
        </mxCell>
        <mxCell id="xweilm0_zY813hbNvjTR-26" value="" style="whiteSpace=wrap;html=1;aspect=fixed;" vertex="1" parent="1">
          <mxGeometry x="280" y="279.5" width="40" height="40" as="geometry" />
        </mxCell>
        <mxCell id="xweilm0_zY813hbNvjTR-27" value="" style="sketch=0;pointerEvents=1;shadow=0;dashed=0;html=1;strokeColor=none;fillColor=#434445;aspect=fixed;labelPosition=center;verticalLabelPosition=bottom;verticalAlign=top;align=center;outlineConnect=0;shape=mxgraph.vvd.wi_fi;" vertex="1" parent="1">
          <mxGeometry x="285" y="285.5" width="30" height="30" as="geometry" />
        </mxCell>
        <mxCell id="xweilm0_zY813hbNvjTR-31" style="edgeStyle=orthogonalEdgeStyle;rounded=0;orthogonalLoop=1;jettySize=auto;html=1;exitX=0.5;exitY=1;exitDx=0;exitDy=0;entryX=0.447;entryY=0.007;entryDx=0;entryDy=0;entryPerimeter=0;" edge="1" parent="1" source="xweilm0_zY813hbNvjTR-29" target="xweilm0_zY813hbNvjTR-11">
          <mxGeometry relative="1" as="geometry" />
        </mxCell>
        <mxCell id="xweilm0_zY813hbNvjTR-32" style="edgeStyle=orthogonalEdgeStyle;rounded=0;orthogonalLoop=1;jettySize=auto;html=1;exitX=1;exitY=0.5;exitDx=0;exitDy=0;entryX=0;entryY=0.5;entryDx=0;entryDy=0;entryPerimeter=0;" edge="1" parent="1" source="xweilm0_zY813hbNvjTR-11" target="xweilm0_zY813hbNvjTR-13">
          <mxGeometry relative="1" as="geometry" />
        </mxCell>
      </root>
    </mxGraphModel>
  </diagram>
</mxfile>
